<svg id="Layer_1" data-name="Layer 1" xmlns="http://www.w3.org/2000/svg" viewBox="0 0 370.34 203.29"><defs><style>.cls-1,.cls-2,.cls-3,.cls-4{fill:#fff;}.cls-2,.cls-3{stroke:#646e85;}.cls-10,.cls-12,.cls-2,.cls-3,.cls-4,.cls-6,.cls-9{stroke-miterlimit:10;}.cls-12,.cls-2{stroke-width:0.8px;}.cls-3{stroke-width:0.5px;opacity:0.5;}.cls-11,.cls-12,.cls-4,.cls-9{stroke:#626c87;}.cls-5{fill:#626c87;}.cls-10,.cls-11,.cls-12,.cls-6,.cls-9{fill:none;}.cls-6{stroke:#636d86;}.cls-7{isolation:isolate;}.cls-8{fill:#646e85;}.cls-10{stroke:#d55ba0;}.cls-11{stroke-linecap:round;stroke-linejoin:round;}</style></defs><rect class="cls-1" y="-0.01" width="370.34" height="203.29"/><rect class="cls-2" x="5.27" y="101.75" width="178.36" height="93.32" rx="2.87"/><rect class="cls-3" x="150.84" y="71.87" width="71.11" height="23.43" rx="2.09"/><path class="cls-4" d="M302.67,148.89h-26a4.29,4.29,0,0,1-4.41-4.09V110.54h31"/><path class="cls-4" d="M302.67,148.89h27.21a4.28,4.28,0,0,0,4.42-4.08V110.54h-31"/><path class="cls-4" d="M303.28,110.54h31V106a4.08,4.08,0,0,0-4.08-4.08H276.34a4.08,4.08,0,0,0-4.08,4.08v4.54h31"/><circle class="cls-5" cx="277.11" cy="106.23" r="1.52"/><circle class="cls-5" cx="283.47" cy="106.23" r="1.52"/><circle class="cls-5" cx="289.84" cy="106.23" r="1.52"/><path class="cls-6" d="M81.88,166.94l-49.12.17a13.92,13.92,0,1,1-.09-27.84,6.76,6.76,0,0,1,.9,0l.86,0,.2-.82a22.93,22.93,0,0,1,27.81-16.92c9,2.15,13.91,9.27,15,11.07l1.14,1.87a13.21,13.21,0,0,1,3.16-.2c6.67.41,16.47,6.22,16.45,16.34A16.41,16.41,0,0,1,81.88,166.94Z"/><g class="cls-7"><g class="cls-7"><path class="cls-5" d="M159.05,76.14v3.39a1.58,1.58,0,0,1-.44,1.15,1.79,1.79,0,0,1-1.19.5h-.18a1.88,1.88,0,0,1-1.3-.44,1.59,1.59,0,0,1-.49-1.22V76.14h.65v3.37a1.14,1.14,0,0,0,.3.84,1.12,1.12,0,0,0,.84.3,1.15,1.15,0,0,0,.86-.3,1.13,1.13,0,0,0,.29-.83V76.14Z"/><path class="cls-5" d="M162.14,80.14a.47.47,0,0,0-.19-.4,1.86,1.86,0,0,0-.67-.24,3,3,0,0,1-.77-.25,1.1,1.1,0,0,1-.41-.34.82.82,0,0,1-.14-.47,1,1,0,0,1,.39-.77,1.48,1.48,0,0,1,1-.32,1.53,1.53,0,0,1,1,.33,1,1,0,0,1,.39.83h-.64a.58.58,0,0,0-.22-.45.78.78,0,0,0-.55-.19.87.87,0,0,0-.54.15.48.48,0,0,0-.2.4.38.38,0,0,0,.18.34,2.14,2.14,0,0,0,.66.22,3.45,3.45,0,0,1,.77.26,1,1,0,0,1,.43.35.84.84,0,0,1,.14.5,1,1,0,0,1-.39.8,1.68,1.68,0,0,1-1,.3,1.8,1.8,0,0,1-.79-.16,1.21,1.21,0,0,1-.53-.44,1.06,1.06,0,0,1-.2-.61h.64a.66.66,0,0,0,.25.51,1,1,0,0,0,.63.18,1,1,0,0,0,.57-.14A.45.45,0,0,0,162.14,80.14Z"/><path class="cls-5" d="M165.13,81.19a1.61,1.61,0,0,1-1.22-.5,1.81,1.81,0,0,1-.47-1.32v-.11a2.25,2.25,0,0,1,.21-1,1.65,1.65,0,0,1,.58-.67,1.46,1.46,0,0,1,.82-.25,1.37,1.37,0,0,1,1.12.48,2,2,0,0,1,.4,1.36v.26h-2.5a1.31,1.31,0,0,0,.32.89,1,1,0,0,0,.78.33,1.08,1.08,0,0,0,.56-.13,1.6,1.6,0,0,0,.41-.37l.39.3A1.56,1.56,0,0,1,165.13,81.19Zm-.08-3.32a.86.86,0,0,0-.64.28,1.39,1.39,0,0,0-.32.78h1.85v-.05a1.15,1.15,0,0,0-.26-.74A.77.77,0,0,0,165.05,77.87Z"/><path class="cls-5" d="M169.09,78a1.51,1.51,0,0,0-.31,0,.83.83,0,0,0-.84.52v2.63h-.63v-3.7h.61v.43a1,1,0,0,1,.88-.5.63.63,0,0,1,.28.05Z"/><path class="cls-5" d="M172.21,81.12h-.66v-5h.66Z"/><path class="cls-5" d="M173.41,81.12v-5h1.4a2.26,2.26,0,0,1,1.15.29,1.85,1.85,0,0,1,.77.82,2.51,2.51,0,0,1,.28,1.21v.32a2.73,2.73,0,0,1-.27,1.24,1.91,1.91,0,0,1-.78.81,2.47,2.47,0,0,1-1.17.29Zm.66-4.44v3.9h.69a1.49,1.49,0,0,0,1.18-.47,1.94,1.94,0,0,0,.42-1.34v-.29a2,2,0,0,0-.4-1.32,1.38,1.38,0,0,0-1.13-.48Z"/><path class="cls-5" d="M177.88,80.79a.4.4,0,0,1,.1-.28.37.37,0,0,1,.29-.11.41.41,0,0,1,.3.11.45.45,0,0,1,.1.28.4.4,0,0,1-.1.26.41.41,0,0,1-.3.11.37.37,0,0,1-.29-.11A.35.35,0,0,1,177.88,80.79Zm0-3a.41.41,0,0,1,.1-.27.35.35,0,0,1,.29-.11.37.37,0,0,1,.3.11.36.36,0,0,1,.1.27.35.35,0,0,1-.1.26.41.41,0,0,1-.3.11A.38.38,0,0,1,178,78,.4.4,0,0,1,177.88,77.77Z"/></g><g class="cls-7"><path class="cls-5" d="M157.73,90.72a1.89,1.89,0,0,1-.09-.39,1.38,1.38,0,0,1-1,.46,1.36,1.36,0,0,1-.9-.31,1,1,0,0,1-.35-.79,1,1,0,0,1,.44-.89,2,2,0,0,1,1.24-.32h.61v-.29a.69.69,0,0,0-.2-.53.78.78,0,0,0-.58-.2,1,1,0,0,0-.57.17.52.52,0,0,0-.23.42h-.63a.87.87,0,0,1,.19-.54,1.34,1.34,0,0,1,.54-.41,1.78,1.78,0,0,1,.74-.15,1.48,1.48,0,0,1,1,.32,1.14,1.14,0,0,1,.37.88v1.7a2.21,2.21,0,0,0,.13.81v.06Zm-1-.48a1.07,1.07,0,0,0,.57-.16.92.92,0,0,0,.38-.4v-.76h-.49q-1.17,0-1.17.69a.58.58,0,0,0,.2.46A.78.78,0,0,0,156.68,90.24Z"/><path class="cls-5" d="M159.94,90.72h-.63V85.47h.63Z"/><path class="cls-5" d="M161,86a.39.39,0,0,1,.09-.26.38.38,0,0,1,.28-.11.36.36,0,0,1,.28.11.39.39,0,0,1,0,.52.36.36,0,0,1-.28.1.37.37,0,0,1-.28-.1A.39.39,0,0,1,161,86Zm.68,4.68H161V87h.63Z"/><path class="cls-5" d="M164.14,90.27a1,1,0,0,0,.59-.2.73.73,0,0,0,.28-.52h.6a1.16,1.16,0,0,1-.22.61,1.54,1.54,0,0,1-1.25.63,1.49,1.49,0,0,1-1.2-.51,2,2,0,0,1-.45-1.37V88.8a2.26,2.26,0,0,1,.2-1,1.45,1.45,0,0,1,.57-.65,1.56,1.56,0,0,1,.87-.24,1.5,1.5,0,0,1,1,.38,1.34,1.34,0,0,1,.44,1H165a.9.9,0,0,0-.27-.59.89.89,0,0,0-.61-.23.87.87,0,0,0-.74.35,1.61,1.61,0,0,0-.27,1v.12a1.64,1.64,0,0,0,.26,1A.9.9,0,0,0,164.14,90.27Z"/><path class="cls-5" d="M167.85,90.79a1.61,1.61,0,0,1-1.22-.5,1.81,1.81,0,0,1-.47-1.32v-.11a2.25,2.25,0,0,1,.21-1,1.65,1.65,0,0,1,.58-.67,1.46,1.46,0,0,1,.82-.25,1.37,1.37,0,0,1,1.12.48,2,2,0,0,1,.4,1.36v.26h-2.5a1.36,1.36,0,0,0,.32.89,1,1,0,0,0,.78.33,1.08,1.08,0,0,0,.56-.13,1.6,1.6,0,0,0,.41-.37l.39.3A1.56,1.56,0,0,1,167.85,90.79Zm-.08-3.32a.86.86,0,0,0-.64.28,1.39,1.39,0,0,0-.32.78h1.85v0a1.15,1.15,0,0,0-.26-.74A.77.77,0,0,0,167.77,87.47Z"/><path class="cls-5" d="M175.49,89a2.34,2.34,0,0,1-.41,1.31,1.19,1.19,0,0,1-1,.48.77.77,0,0,1-.82-.58,1.27,1.27,0,0,1-.42.44,1,1,0,0,1-.49.14.81.81,0,0,1-.74-.4,1.74,1.74,0,0,1-.18-1.1,2.83,2.83,0,0,1,.26-1,1.74,1.74,0,0,1,.53-.7,1.08,1.08,0,0,1,.68-.25,1.55,1.55,0,0,1,.5.07,1.73,1.73,0,0,1,.49.29l-.18,1.89c0,.53.11.79.44.79a.71.71,0,0,0,.63-.38,2,2,0,0,0,.26-1,2.9,2.9,0,0,0-.5-2,2,2,0,0,0-1.7-.7,2.2,2.2,0,0,0-1.22.34,2.39,2.39,0,0,0-.84,1,3.84,3.84,0,0,0-.34,1.49,3.57,3.57,0,0,0,.2,1.47,2.05,2.05,0,0,0,.75,1,2.18,2.18,0,0,0,1.22.33,2.62,2.62,0,0,0,.62-.07,1.87,1.87,0,0,0,.51-.2l.13.39a1.72,1.72,0,0,1-.56.22,2.88,2.88,0,0,1-.71.09,2.69,2.69,0,0,1-1.47-.39,2.28,2.28,0,0,1-.92-1.1,3.79,3.79,0,0,1-.27-1.69,4.17,4.17,0,0,1,.42-1.69,2.84,2.84,0,0,1,1-1.16,2.63,2.63,0,0,1,1.47-.41,2.76,2.76,0,0,1,1.46.38,2.32,2.32,0,0,1,.9,1.11A3.86,3.86,0,0,1,175.49,89Zm-3.51.29a1.37,1.37,0,0,0,.09.75.47.47,0,0,0,.44.26.58.58,0,0,0,.4-.18,1.29,1.29,0,0,0,.31-.49v0l.16-1.71a.83.83,0,0,0-.41-.1.75.75,0,0,0-.66.4A2.39,2.39,0,0,0,172,89.29Z"/><path class="cls-5" d="M177.85,90.79a1.63,1.63,0,0,1-1.23-.5,1.85,1.85,0,0,1-.47-1.32v-.11a2.25,2.25,0,0,1,.21-1,1.67,1.67,0,0,1,.59-.67,1.42,1.42,0,0,1,.82-.25,1.38,1.38,0,0,1,1.12.48,2,2,0,0,1,.4,1.36v.26h-2.51a1.36,1.36,0,0,0,.32.89,1,1,0,0,0,.78.33,1.14,1.14,0,0,0,.57-.13,1.56,1.56,0,0,0,.4-.37l.39.3A1.54,1.54,0,0,1,177.85,90.79Zm-.08-3.32a.88.88,0,0,0-.65.28,1.39,1.39,0,0,0-.32.78h1.86v0a1.21,1.21,0,0,0-.26-.74A.8.8,0,0,0,177.77,87.47Z"/><path class="cls-5" d="M181.26,88.37l.82-1.35h.74l-1.21,1.83,1.25,1.87h-.73l-.86-1.39-.85,1.39h-.74l1.25-1.87L179.72,87h.73Z"/><path class="cls-5" d="M185.77,90.72a1.89,1.89,0,0,1-.09-.39,1.38,1.38,0,0,1-1.05.46,1.36,1.36,0,0,1-.9-.31,1,1,0,0,1-.35-.79,1,1,0,0,1,.44-.89,2.05,2.05,0,0,1,1.24-.32h.61v-.29a.72.72,0,0,0-.19-.53.83.83,0,0,0-.59-.2,1,1,0,0,0-.57.17.52.52,0,0,0-.23.42h-.63a.82.82,0,0,1,.2-.54,1.3,1.3,0,0,1,.53-.41,1.78,1.78,0,0,1,.74-.15,1.48,1.48,0,0,1,1,.32,1.18,1.18,0,0,1,.38.88v1.7a2,2,0,0,0,.13.81v.06Zm-1.05-.48a1.07,1.07,0,0,0,.57-.16.92.92,0,0,0,.38-.4v-.76h-.49c-.78,0-1.16.23-1.16.69a.58.58,0,0,0,.19.46A.8.8,0,0,0,184.72,90.24Z"/><path class="cls-5" d="M187.89,87l0,.41A1.37,1.37,0,0,1,189,87a1.06,1.06,0,0,1,1.05.6,1.52,1.52,0,0,1,.48-.43,1.42,1.42,0,0,1,.7-.17c.81,0,1.22.43,1.24,1.29v2.48h-.63V88.28a.69.69,0,0,0-.79-.79.85.85,0,0,0-.59.21.9.9,0,0,0-.27.57v2.45h-.63V88.3a.71.71,0,0,0-.79-.81.84.84,0,0,0-.85.53v2.7h-.64V87Z"/><path class="cls-5" d="M196.56,88.91a2.2,2.2,0,0,1-.39,1.36,1.24,1.24,0,0,1-1,.52,1.36,1.36,0,0,1-1.06-.43v1.78h-.63V87H194l0,.41a1.31,1.31,0,0,1,1.07-.48,1.26,1.26,0,0,1,1.06.51,2.21,2.21,0,0,1,.39,1.39Zm-.64-.07a1.69,1.69,0,0,0-.26-1,.86.86,0,0,0-.73-.36.94.94,0,0,0-.87.51v1.77a.94.94,0,0,0,.87.5.86.86,0,0,0,.73-.36A1.86,1.86,0,0,0,195.92,88.84Z"/><path class="cls-5" d="M198.05,90.72h-.64V85.47h.64Z"/><path class="cls-5" d="M200.59,90.79a1.61,1.61,0,0,1-1.22-.5A1.81,1.81,0,0,1,198.9,89v-.11a2.25,2.25,0,0,1,.21-1,1.6,1.6,0,0,1,.59-.67,1.51,1.51,0,0,1,1.94.23,2.08,2.08,0,0,1,.4,1.36v.26h-2.51a1.36,1.36,0,0,0,.32.89,1,1,0,0,0,.78.33,1.08,1.08,0,0,0,.56-.13,1.45,1.45,0,0,0,.41-.37l.39.3A1.56,1.56,0,0,1,200.59,90.79Zm-.08-3.32a.86.86,0,0,0-.64.28,1.39,1.39,0,0,0-.32.78h1.85v0a1.15,1.15,0,0,0-.26-.74A.77.77,0,0,0,200.51,87.47Z"/><path class="cls-5" d="M202.78,90.39a.4.4,0,0,1,.1-.28.37.37,0,0,1,.29-.11.41.41,0,0,1,.3.11.45.45,0,0,1,.1.28.4.4,0,0,1-.1.26.41.41,0,0,1-.3.11.37.37,0,0,1-.29-.11A.35.35,0,0,1,202.78,90.39Z"/><path class="cls-5" d="M206.09,90.27a.92.92,0,0,0,.59-.2.7.7,0,0,0,.28-.52h.6a1.08,1.08,0,0,1-.22.61,1.49,1.49,0,0,1-.53.46,1.65,1.65,0,0,1-.72.17,1.52,1.52,0,0,1-1.2-.51,2,2,0,0,1-.44-1.37V88.8a2.25,2.25,0,0,1,.19-1,1.51,1.51,0,0,1,.57-.65,1.59,1.59,0,0,1,.88-.24,1.47,1.47,0,0,1,1,.38,1.3,1.3,0,0,1,.44,1H207a.82.82,0,0,0-.27-.59.85.85,0,0,0-.6-.23.9.9,0,0,0-.75.35,1.68,1.68,0,0,0-.26,1v.12a1.58,1.58,0,0,0,.26,1A.9.9,0,0,0,206.09,90.27Z"/><path class="cls-5" d="M208.11,88.84a2.21,2.21,0,0,1,.21-1,1.61,1.61,0,0,1,.59-.67,1.63,1.63,0,0,1,.87-.24,1.57,1.57,0,0,1,1.23.53,2,2,0,0,1,.46,1.39v0a2.34,2.34,0,0,1-.2,1,1.56,1.56,0,0,1-.6.67,1.61,1.61,0,0,1-.88.24,1.56,1.56,0,0,1-1.22-.53,2,2,0,0,1-.46-1.38Zm.63.07a1.6,1.6,0,0,0,.29,1,1,1,0,0,0,1.53,0,1.77,1.77,0,0,0,.28-1,1.6,1.6,0,0,0-.29-1,1,1,0,0,0-1.52,0A1.75,1.75,0,0,0,208.74,88.91Z"/><path class="cls-5" d="M212.86,87l0,.41A1.35,1.35,0,0,1,214,87a1.06,1.06,0,0,1,1.06.6,1.33,1.33,0,0,1,.48-.43,1.42,1.42,0,0,1,.7-.17c.81,0,1.22.43,1.24,1.29v2.48h-.64V88.28a.83.83,0,0,0-.18-.59.79.79,0,0,0-.6-.2.85.85,0,0,0-.59.21.9.9,0,0,0-.27.57v2.45h-.63V88.3a.71.71,0,0,0-.8-.81.86.86,0,0,0-.85.53v2.7h-.63V87Z"/></g></g><g class="cls-7"><path class="cls-8" d="M230.2,31.93v2.41a1.15,1.15,0,0,1-.32.83,1.31,1.31,0,0,1-.85.36h-.12a1.32,1.32,0,0,1-.93-.31,1.12,1.12,0,0,1-.35-.87V31.93h.46v2.4a.81.81,0,0,0,.21.6.82.82,0,0,0,1.43-.59V31.93Z"/><path class="cls-8" d="M232.41,34.78a.32.32,0,0,0-.14-.28,1.26,1.26,0,0,0-.48-.18,3,3,0,0,1-.55-.17.72.72,0,0,1-.29-.25.52.52,0,0,1-.1-.33.69.69,0,0,1,.27-.55,1.23,1.23,0,0,1,1.43,0,.75.75,0,0,1,.28.6h-.45a.39.39,0,0,0-.16-.32.58.58,0,0,0-.39-.14.62.62,0,0,0-.39.11.34.34,0,0,0-.14.28.28.28,0,0,0,.13.25,1.76,1.76,0,0,0,.47.16,2.53,2.53,0,0,1,.55.18.88.88,0,0,1,.31.25.69.69,0,0,1,.1.36.71.71,0,0,1-.28.57,1.22,1.22,0,0,1-.74.21,1.4,1.4,0,0,1-.56-.11.92.92,0,0,1-.38-.32.67.67,0,0,1-.14-.43h.45a.49.49,0,0,0,.18.36.69.69,0,0,0,.45.13.71.71,0,0,0,.41-.1A.33.33,0,0,0,232.41,34.78Z"/><path class="cls-8" d="M234.54,35.53a1.15,1.15,0,0,1-.87-.35,1.3,1.3,0,0,1-.34-1v-.08a1.6,1.6,0,0,1,.15-.7,1.1,1.1,0,0,1,.42-.48,1,1,0,0,1,.59-.18,1,1,0,0,1,.8.34,1.48,1.48,0,0,1,.28,1v.19h-1.79a1,1,0,0,0,.23.63.8.8,0,0,0,1,.14,1,1,0,0,0,.29-.25l.28.21A1.11,1.11,0,0,1,234.54,35.53Zm0-2.37a.6.6,0,0,0-.46.2.93.93,0,0,0-.23.56h1.32v0a.87.87,0,0,0-.18-.54A.6.6,0,0,0,234.49,33.16Z"/><path class="cls-8" d="M237.37,33.25a.78.78,0,0,0-.22,0,.58.58,0,0,0-.6.38v1.87h-.45V32.84h.44v.31a.71.71,0,0,1,.63-.36.35.35,0,0,1,.2,0Z"/><path class="cls-8" d="M239.6,35.48h-.47V31.93h.47Z"/><path class="cls-8" d="M240.45,35.48V31.93h1a1.69,1.69,0,0,1,.82.2,1.37,1.37,0,0,1,.55.59,2,2,0,0,1,.2.86v.23a1.87,1.87,0,0,1-.2.88,1.29,1.29,0,0,1-.55.58,1.64,1.64,0,0,1-.84.21Zm.47-3.17V35.1h.5a1.05,1.05,0,0,0,.84-.34,1.38,1.38,0,0,0,.3-1v-.21a1.42,1.42,0,0,0-.28-.94,1,1,0,0,0-.81-.34Z"/><path class="cls-8" d="M243.65,35.24a.26.26,0,0,1,.07-.19.27.27,0,0,1,.21-.08.29.29,0,0,1,.21.08.26.26,0,0,1,.07.19.25.25,0,0,1-.07.19.29.29,0,0,1-.21.08.27.27,0,0,1-.21-.08A.25.25,0,0,1,243.65,35.24Zm0-2.15a.29.29,0,0,1,.07-.2.35.35,0,0,1,.42,0,.29.29,0,0,1,.07.2.26.26,0,0,1-.07.19.35.35,0,0,1-.42,0A.26.26,0,0,1,243.65,33.09Z"/><path class="cls-8" d="M230.31,40.35a1.28,1.28,0,0,1-.41.87,1.37,1.37,0,0,1-.94.31,1.26,1.26,0,0,1-1-.45,1.84,1.84,0,0,1-.37-1.21v-.34a2,2,0,0,1,.17-.87,1.36,1.36,0,0,1,.5-.58,1.45,1.45,0,0,1,.75-.2,1.27,1.27,0,0,1,.91.31,1.37,1.37,0,0,1,.4.88h-.47a1.08,1.08,0,0,0-.26-.62.86.86,0,0,0-.58-.19.84.84,0,0,0-.7.33,1.56,1.56,0,0,0-.25.95v.34a1.6,1.6,0,0,0,.24.93.79.79,0,0,0,.67.34.9.9,0,0,0,.6-.18,1,1,0,0,0,.28-.62Z"/><path class="cls-8" d="M233.22,40.86l.51-2h.45l-.77,2.64H233l-.64-2-.62,2h-.37l-.77-2.64h.45l.52,2,.62-2h.36Z"/><path class="cls-8" d="M236.82,40a2,2,0,0,1-.27,1.17,1,1,0,0,1-.85.39,1,1,0,0,1-.84-.38,1.9,1.9,0,0,1-.28-1.12v-.61a2,2,0,0,1,.27-1.16,1,1,0,0,1,.85-.38,1,1,0,0,1,.84.37,1.89,1.89,0,0,1,.28,1.13Zm-.45-.62a1.66,1.66,0,0,0-.16-.84.63.63,0,0,0-1,0,1.63,1.63,0,0,0-.16.8V40a1.61,1.61,0,0,0,.17.85.55.55,0,0,0,.5.27.54.54,0,0,0,.5-.26,1.63,1.63,0,0,0,.17-.81Z"/><path class="cls-8" d="M238,41.1h1.68v.38h-2.15V37.93H238Z"/><path class="cls-8" d="M242.82,40.35a1.28,1.28,0,0,1-.41.87,1.37,1.37,0,0,1-.94.31,1.26,1.26,0,0,1-1-.45,1.84,1.84,0,0,1-.38-1.21v-.34a2,2,0,0,1,.18-.87,1.36,1.36,0,0,1,.5-.58,1.45,1.45,0,0,1,.75-.2,1.27,1.27,0,0,1,.91.31,1.37,1.37,0,0,1,.4.88h-.47a1,1,0,0,0-.27-.62.81.81,0,0,0-.57-.19.84.84,0,0,0-.7.33,1.56,1.56,0,0,0-.25.95v.34a1.6,1.6,0,0,0,.24.93.79.79,0,0,0,.67.34.9.9,0,0,0,.6-.18,1,1,0,0,0,.28-.62Z"/><path class="cls-8" d="M246.18,39.82a2.21,2.21,0,0,1-.17.89,1.4,1.4,0,0,1-.46.58l.64.5-.32.29-.75-.59a1.5,1.5,0,0,1-.37,0,1.34,1.34,0,0,1-1.25-.79,2.24,2.24,0,0,1-.19-.89v-.26a2.13,2.13,0,0,1,.18-.9,1.37,1.37,0,0,1,.51-.6,1.31,1.31,0,0,1,.74-.21,1.38,1.38,0,0,1,.76.21,1.27,1.27,0,0,1,.5.59,2.17,2.17,0,0,1,.18.91Zm-.47-.23a1.67,1.67,0,0,0-.25-1,.84.84,0,0,0-.72-.34.81.81,0,0,0-.69.34,1.59,1.59,0,0,0-.27.94v.26a1.59,1.59,0,0,0,.26,1,.9.9,0,0,0,1.41,0,1.58,1.58,0,0,0,.26-.95Z"/><path class="cls-8" d="M247.4,41.48h-.47V37.93h.47Z"/><path class="cls-8" d="M250.27,39.84h-1.54V41.1h1.79v.38h-2.26V37.93h2.23v.38h-1.76v1.15h1.54Z"/><path class="cls-8" d="M253.71,40.35a1.28,1.28,0,0,1-.41.87,1.34,1.34,0,0,1-.93.31,1.25,1.25,0,0,1-1-.45,1.79,1.79,0,0,1-.38-1.21v-.34a2,2,0,0,1,.18-.87,1.24,1.24,0,0,1,.5-.58,1.4,1.4,0,0,1,.75-.2,1.29,1.29,0,0,1,.91.31,1.36,1.36,0,0,1,.39.88h-.47a1.08,1.08,0,0,0-.26-.62.94.94,0,0,0-1.28.14,1.56,1.56,0,0,0-.25.95v.34a1.6,1.6,0,0,0,.24.93.8.8,0,0,0,.68.34A.9.9,0,0,0,253,41a1,1,0,0,0,.27-.62Z"/><path class="cls-8" d="M254.18,40.14a1.54,1.54,0,0,1,.28-1,.9.9,0,0,1,.76-.37.92.92,0,0,1,.75.34l0-.29h.42v2.58a1.06,1.06,0,0,1-.31.81,1.13,1.13,0,0,1-.81.29,1.38,1.38,0,0,1-.56-.12.94.94,0,0,1-.42-.33l.23-.28a.89.89,0,0,0,.71.36.71.71,0,0,0,.52-.18.73.73,0,0,0,.18-.52v-.23a.91.91,0,0,1-.74.31.89.89,0,0,1-.75-.37A1.65,1.65,0,0,1,254.18,40.14Zm.45,0a1.19,1.19,0,0,0,.18.7.62.62,0,0,0,.52.26.65.65,0,0,0,.62-.39V39.55a.67.67,0,0,0-.62-.38.59.59,0,0,0-.51.26A1.23,1.23,0,0,0,254.63,40.19Z"/><path class="cls-8" d="M259.87,39.82a2.21,2.21,0,0,1-.16.89,1.4,1.4,0,0,1-.46.58l.64.5-.32.29-.75-.59a1.5,1.5,0,0,1-.37,0,1.34,1.34,0,0,1-1.25-.79,2.24,2.24,0,0,1-.19-.89v-.26a2.13,2.13,0,0,1,.18-.9,1.37,1.37,0,0,1,.51-.6,1.31,1.31,0,0,1,.74-.21,1.38,1.38,0,0,1,.76.21,1.33,1.33,0,0,1,.5.59,2.17,2.17,0,0,1,.17.91Zm-.46-.23a1.67,1.67,0,0,0-.25-1,.84.84,0,0,0-.72-.34.83.83,0,0,0-.7.34,1.59,1.59,0,0,0-.26.94v.26a1.59,1.59,0,0,0,.26,1,.81.81,0,0,0,.71.35.83.83,0,0,0,.7-.33,1.58,1.58,0,0,0,.26-.95Z"/><path class="cls-8" d="M263.33,39.82a2.31,2.31,0,0,1-.17.91,1.42,1.42,0,0,1-.5.6,1.45,1.45,0,0,1-.75.2,1.37,1.37,0,0,1-.75-.21,1.3,1.3,0,0,1-.5-.58,2.24,2.24,0,0,1-.19-.89v-.26a2.13,2.13,0,0,1,.18-.9,1.37,1.37,0,0,1,.51-.6,1.31,1.31,0,0,1,.74-.21,1.4,1.4,0,0,1,.75.2,1.37,1.37,0,0,1,.51.6,2.34,2.34,0,0,1,.17.91Zm-.46-.23a1.58,1.58,0,0,0-.26-1,.83.83,0,0,0-.71-.34.81.81,0,0,0-.7.34,1.52,1.52,0,0,0-.26.94v.26a1.52,1.52,0,0,0,.26,1,.81.81,0,0,0,.71.35.83.83,0,0,0,.7-.33,1.65,1.65,0,0,0,.26-.95Z"/><path class="cls-8" d="M264,41.48V37.93h1.17a1.37,1.37,0,0,1,.87.24.86.86,0,0,1,.29.7.72.72,0,0,1-.14.44,1,1,0,0,1-.39.3.83.83,0,0,1,.62.85.93.93,0,0,1-.31.75,1.26,1.26,0,0,1-.87.27Zm.47-2h.71a.74.74,0,0,0,.49-.15.5.5,0,0,0,.19-.42.54.54,0,0,0-.17-.43.85.85,0,0,0-.52-.13h-.7Zm0,.38V41.1h.78a.75.75,0,0,0,.51-.17.58.58,0,0,0,.19-.47c0-.43-.23-.64-.7-.64Z"/><path class="cls-8" d="M269.86,39.82a2.21,2.21,0,0,1-.16.89,1.4,1.4,0,0,1-.46.58l.63.5-.32.29-.75-.59a1.45,1.45,0,0,1-.37,0,1.33,1.33,0,0,1-.74-.21,1.32,1.32,0,0,1-.51-.58,2.24,2.24,0,0,1-.18-.89v-.26a2.13,2.13,0,0,1,.18-.9,1.42,1.42,0,0,1,.5-.6,1.37,1.37,0,0,1,.75-.21,1.34,1.34,0,0,1,.75.21,1.29,1.29,0,0,1,.51.59,2.34,2.34,0,0,1,.17.91Zm-.47-.23a1.6,1.6,0,0,0-.25-1,.9.9,0,0,0-1.41,0,1.52,1.52,0,0,0-.26.94v.26a1.59,1.59,0,0,0,.25,1,.82.82,0,0,0,.71.35.84.84,0,0,0,.71-.33,1.58,1.58,0,0,0,.25-.95Z"/><path class="cls-8" d="M270.41,40.14a1.54,1.54,0,0,1,.28-1,.9.9,0,0,1,.76-.37.92.92,0,0,1,.75.34l0-.29h.42v2.58a1.06,1.06,0,0,1-.31.81,1.13,1.13,0,0,1-.81.29,1.38,1.38,0,0,1-.56-.12,1,1,0,0,1-.42-.33l.24-.28a.86.86,0,0,0,.71.36A.71.71,0,0,0,272,42a.73.73,0,0,0,.18-.52v-.23a.91.91,0,0,1-.74.31.89.89,0,0,1-.75-.37A1.65,1.65,0,0,1,270.41,40.14Zm.45,0a1.19,1.19,0,0,0,.18.7.62.62,0,0,0,.52.26.65.65,0,0,0,.62-.39V39.55a.67.67,0,0,0-.62-.38.59.59,0,0,0-.51.26A1.23,1.23,0,0,0,270.86,40.19Z"/><path class="cls-8" d="M276,40.35a1.28,1.28,0,0,1-.41.87,1.34,1.34,0,0,1-.93.31,1.25,1.25,0,0,1-1-.45,1.79,1.79,0,0,1-.38-1.21v-.34a2,2,0,0,1,.18-.87,1.24,1.24,0,0,1,.5-.58,1.4,1.4,0,0,1,.75-.2,1.29,1.29,0,0,1,.91.31,1.36,1.36,0,0,1,.39.88h-.47a1.08,1.08,0,0,0-.26-.62.94.94,0,0,0-1.28.14,1.56,1.56,0,0,0-.25.95v.34a1.6,1.6,0,0,0,.24.93.8.8,0,0,0,.68.34.9.9,0,0,0,.6-.18,1,1,0,0,0,.27-.62Z"/><path class="cls-8" d="M276.64,41.48V37.93h1.17a1.37,1.37,0,0,1,.87.24.86.86,0,0,1,.29.7.72.72,0,0,1-.14.44,1,1,0,0,1-.39.3.83.83,0,0,1,.62.85.93.93,0,0,1-.31.75,1.26,1.26,0,0,1-.87.27Zm.47-2h.71a.74.74,0,0,0,.49-.15.5.5,0,0,0,.19-.42.54.54,0,0,0-.17-.43.85.85,0,0,0-.52-.13h-.7Zm0,.38V41.1h.78a.73.73,0,0,0,.51-.17.58.58,0,0,0,.19-.47c0-.43-.23-.64-.7-.64Z"/><path class="cls-8" d="M281.72,40.55h-1.49l-.33.93h-.49l1.36-3.55h.41l1.36,3.55h-.48Zm-1.35-.38h1.21l-.6-1.66Z"/><path class="cls-8" d="M284.49,40.78a.32.32,0,0,0-.14-.28,1.26,1.26,0,0,0-.48-.18,3,3,0,0,1-.55-.17.72.72,0,0,1-.29-.25.52.52,0,0,1-.1-.33.69.69,0,0,1,.27-.55,1.23,1.23,0,0,1,1.43,0,.75.75,0,0,1,.28.6h-.45a.39.39,0,0,0-.16-.32.58.58,0,0,0-.39-.14.62.62,0,0,0-.39.11.34.34,0,0,0-.14.28.28.28,0,0,0,.13.25A1.76,1.76,0,0,0,284,40a2.53,2.53,0,0,1,.55.18.88.88,0,0,1,.31.25.69.69,0,0,1,.1.36.71.71,0,0,1-.28.57,1.22,1.22,0,0,1-.74.21,1.4,1.4,0,0,1-.56-.11.92.92,0,0,1-.38-.32.67.67,0,0,1-.14-.43h.45a.49.49,0,0,0,.18.36.69.69,0,0,0,.45.13.71.71,0,0,0,.41-.1A.33.33,0,0,0,284.49,40.78Z"/><path class="cls-8" d="M288.33,41.48h-.47l-1.79-2.74v2.74h-.47V37.93h.47l1.79,2.75V37.93h.47Z"/><path class="cls-8" d="M289.16,41.48V37.93h1.16a1.33,1.33,0,0,1,.87.24.84.84,0,0,1,.3.7.67.67,0,0,1-.15.44.88.88,0,0,1-.38.3.85.85,0,0,1,.45.31.83.83,0,0,1,.17.54.93.93,0,0,1-.31.75,1.3,1.3,0,0,1-.88.27Zm.47-2h.71a.75.75,0,0,0,.49-.15.52.52,0,0,0,.18-.42.51.51,0,0,0-.17-.43.81.81,0,0,0-.52-.13h-.69Zm0,.38V41.1h.77a.77.77,0,0,0,.52-.17.58.58,0,0,0,.19-.47c0-.43-.23-.64-.7-.64Z"/><path class="cls-8" d="M294.24,40.55h-1.49l-.34.93h-.48l1.36-3.55h.41l1.36,3.55h-.48Zm-1.35-.38h1.21l-.61-1.66Z"/></g><g class="cls-7"><g class="cls-7"><path class="cls-5" d="M28.21,179.13a1.29,1.29,0,0,1-.42.87,1.37,1.37,0,0,1-.93.3,1.26,1.26,0,0,1-1-.45,1.83,1.83,0,0,1-.38-1.21v-.34a2,2,0,0,1,.18-.87,1.42,1.42,0,0,1,.5-.58,1.45,1.45,0,0,1,.75-.2,1.29,1.29,0,0,1,.91.32,1.32,1.32,0,0,1,.4.87h-.47a1,1,0,0,0-.27-.61.77.77,0,0,0-.57-.2.85.85,0,0,0-.7.34,1.5,1.5,0,0,0-.25.94v.35a1.59,1.59,0,0,0,.24.92.76.76,0,0,0,.67.34.9.9,0,0,0,.6-.18,1,1,0,0,0,.28-.61Z"/><path class="cls-5" d="M29.27,180.25h-.45V176.5h.45Z"/><path class="cls-5" d="M30,176.91a.29.29,0,0,1,.07-.18.26.26,0,0,1,.2-.08.25.25,0,0,1,.2.08.24.24,0,0,1,.07.18.25.25,0,0,1-.07.19.28.28,0,0,1-.2.07.3.3,0,0,1-.2-.07A.29.29,0,0,1,30,176.91Zm.49,3.34H30v-2.64h.45Z"/><path class="cls-5" d="M32.3,180.3a1.12,1.12,0,0,1-.87-.35,1.28,1.28,0,0,1-.34-.94v-.09a1.6,1.6,0,0,1,.15-.7,1.22,1.22,0,0,1,.42-.48,1,1,0,0,1,.59-.18,1,1,0,0,1,.8.34,1.49,1.49,0,0,1,.28,1v.18H31.54a.93.93,0,0,0,.23.63.73.73,0,0,0,.56.24.82.82,0,0,0,.4-.09,1,1,0,0,0,.29-.26l.28.21A1.12,1.12,0,0,1,32.3,180.3Zm0-2.36a.59.59,0,0,0-.46.19,1,1,0,0,0-.23.56h1.32v0a.87.87,0,0,0-.18-.54A.6.6,0,0,0,32.25,177.94Z"/><path class="cls-5" d="M34.28,177.61l0,.34a.94.94,0,0,1,.79-.39c.56,0,.84.32.84.95v1.74h-.45v-1.74a.61.61,0,0,0-.13-.43A.52.52,0,0,0,35,178a.62.62,0,0,0-.38.12.64.64,0,0,0-.26.3v1.88h-.45v-2.64Z"/><path class="cls-5" d="M37.23,177v.64h.49V178h-.49v1.64a.38.38,0,0,0,.06.24.3.3,0,0,0,.23.08l.21,0v.36a1.06,1.06,0,0,1-.35.05.55.55,0,0,1-.45-.18.79.79,0,0,1-.15-.52V178h-.49v-.35h.49V177Z"/><path class="cls-5" d="M40.06,180.25h-.47V176.7h.47Z"/><path class="cls-5" d="M40.92,180.25V176.7h1a1.59,1.59,0,0,1,.82.21,1.34,1.34,0,0,1,.55.58,2,2,0,0,1,.2.87v.22a2,2,0,0,1-.2.89,1.4,1.4,0,0,1-.55.58,1.74,1.74,0,0,1-.84.2Zm.46-3.17v2.79h.5a1.05,1.05,0,0,0,.84-.34,1.38,1.38,0,0,0,.3-1v-.2a1.44,1.44,0,0,0-.28-1,1.05,1.05,0,0,0-.81-.34Z"/><path class="cls-5" d="M44.11,180a.27.27,0,0,1,.07-.2.26.26,0,0,1,.21-.08.29.29,0,0,1,.21.08.27.27,0,0,1,.07.2.26.26,0,0,1-.07.19.28.28,0,0,1-.21.07.25.25,0,0,1-.21-.07A.26.26,0,0,1,44.11,180Zm0-2.16a.25.25,0,0,1,.07-.19.32.32,0,0,1,.42,0,.29.29,0,0,1,0,.38.32.32,0,0,1-.42,0A.25.25,0,0,1,44.11,177.86Z"/></g><g class="cls-7"><path class="cls-5" d="M26.58,186.53a.64.64,0,0,0,.43-.14.55.55,0,0,0,.2-.37h.42a.77.77,0,0,1-.15.43,1,1,0,0,1-.39.33,1.13,1.13,0,0,1-.51.12,1.07,1.07,0,0,1-.85-.36,1.4,1.4,0,0,1-.32-1v-.08a1.51,1.51,0,0,1,.14-.68,1,1,0,0,1,.41-.47,1.13,1.13,0,0,1,.62-.17,1.05,1.05,0,0,1,.74.27.93.93,0,0,1,.31.69h-.42a.64.64,0,0,0-.2-.42.59.59,0,0,0-.43-.16.64.64,0,0,0-.53.24,1.16,1.16,0,0,0-.19.72v.08a1.13,1.13,0,0,0,.19.71A.63.63,0,0,0,26.58,186.53Z"/><path class="cls-5" d="M28.63,186.85h-.45V183.1h.45Z"/><path class="cls-5" d="M29.24,185.51a1.6,1.6,0,0,1,.15-.7,1.1,1.1,0,0,1,.42-.48,1.19,1.19,0,0,1,.63-.17,1.12,1.12,0,0,1,.87.38,1.44,1.44,0,0,1,.33,1v0a1.52,1.52,0,0,1-.15.69,1.19,1.19,0,0,1-1.92.28,1.44,1.44,0,0,1-.33-1Zm.45.05a1.17,1.17,0,0,0,.2.71.65.65,0,0,0,.55.26.66.66,0,0,0,.55-.27,1.26,1.26,0,0,0,.2-.75,1.13,1.13,0,0,0-.21-.71.63.63,0,0,0-.54-.26.62.62,0,0,0-.54.26A1.21,1.21,0,0,0,29.69,185.56Z"/><path class="cls-5" d="M33.84,186.59a1,1,0,0,1-.78.31.83.83,0,0,1-.64-.24,1.06,1.06,0,0,1-.22-.73v-1.72h.45v1.71c0,.4.16.6.49.6a.69.69,0,0,0,.69-.39v-1.92h.45v2.64h-.43Z"/><path class="cls-5" d="M34.85,185.51a1.58,1.58,0,0,1,.29-1,.94.94,0,0,1,.76-.37.93.93,0,0,1,.73.32V183.1h.45v3.75h-.41l0-.28a1,1,0,0,1-.76.33.92.92,0,0,1-.75-.37,1.58,1.58,0,0,1-.29-1Zm.46.05a1.22,1.22,0,0,0,.18.71.61.61,0,0,0,.51.25.66.66,0,0,0,.63-.39v-1.21a.65.65,0,0,0-.62-.37.61.61,0,0,0-.52.25A1.33,1.33,0,0,0,35.31,185.56Z"/><path class="cls-5" d="M39.69,187.22H37.45v-.37h2.24Z"/><path class="cls-5" d="M41.67,186.85a.67.67,0,0,1-.06-.27,1,1,0,0,1-.75.32.93.93,0,0,1-.65-.22.72.72,0,0,1-.25-.56.75.75,0,0,1,.32-.64,1.49,1.49,0,0,1,.88-.23h.44v-.2a.52.52,0,0,0-.14-.38.56.56,0,0,0-.42-.14.69.69,0,0,0-.41.12.38.38,0,0,0-.16.3H40a.6.6,0,0,1,.14-.39.94.94,0,0,1,.38-.29,1.29,1.29,0,0,1,.53-.11,1,1,0,0,1,.71.23.84.84,0,0,1,.27.63v1.22a1.57,1.57,0,0,0,.09.58v0Zm-.75-.34a.8.8,0,0,0,.4-.11.65.65,0,0,0,.28-.29v-.54h-.35c-.56,0-.83.16-.83.49a.39.39,0,0,0,.14.33A.52.52,0,0,0,40.92,186.51Z"/><path class="cls-5" d="M45,185.56a1.53,1.53,0,0,1-.28,1,.86.86,0,0,1-.74.37,1,1,0,0,1-.76-.3v1.27h-.45v-3.66h.41l0,.3a.94.94,0,0,1,.77-.35.88.88,0,0,1,.75.36,1.57,1.57,0,0,1,.28,1Zm-.45-.05a1.12,1.12,0,0,0-.19-.7.6.6,0,0,0-.52-.26.67.67,0,0,0-.62.36v1.26a.67.67,0,0,0,.62.36.61.61,0,0,0,.52-.25A1.34,1.34,0,0,0,44.54,185.51Z"/><path class="cls-5" d="M47.8,185.56a1.6,1.6,0,0,1-.28,1,.87.87,0,0,1-.75.37,1,1,0,0,1-.75-.3v1.27h-.46v-3.66H46l0,.3a.93.93,0,0,1,.77-.35.91.91,0,0,1,.75.36,1.63,1.63,0,0,1,.28,1Zm-.46-.05a1.12,1.12,0,0,0-.19-.7.59.59,0,0,0-.52-.26.65.65,0,0,0-.61.36v1.26a.66.66,0,0,0,.62.36.6.6,0,0,0,.51-.25A1.27,1.27,0,0,0,47.34,185.51Z"/><path class="cls-5" d="M50.27,187.22H48v-.37h2.23Z"/><path class="cls-5" d="M52.06,186.85h-.45v-3l-.91.34v-.41l1.29-.49h.07Z"/></g></g><g class="cls-7"><g class="cls-7"><path class="cls-5" d="M291.89,128.13a1.79,1.79,0,0,1-.58,1.22,1.9,1.9,0,0,1-1.31.43,1.77,1.77,0,0,1-1.41-.63,2.57,2.57,0,0,1-.53-1.69V127a2.77,2.77,0,0,1,.25-1.22,1.85,1.85,0,0,1,.7-.81,1.92,1.92,0,0,1,1.05-.28,1.8,1.8,0,0,1,1.27.44,1.84,1.84,0,0,1,.56,1.23h-.66a1.47,1.47,0,0,0-.37-.87,1.12,1.12,0,0,0-.8-.27,1.16,1.16,0,0,0-1,.47,2.12,2.12,0,0,0-.36,1.32v.49a2.17,2.17,0,0,0,.34,1.29,1.1,1.1,0,0,0,.94.47,1.28,1.28,0,0,0,.84-.24,1.36,1.36,0,0,0,.39-.87Z"/><path class="cls-5" d="M293.37,129.71h-.63v-5.25h.63Z"/><path class="cls-5" d="M294.39,125a.39.39,0,0,1,.09-.26.37.37,0,0,1,.28-.1.34.34,0,0,1,.28.1.35.35,0,0,1,.1.26.34.34,0,0,1-.1.26.34.34,0,0,1-.28.1.33.33,0,0,1-.37-.36Zm.68,4.68h-.63V126h.63Z"/><path class="cls-5" d="M297.62,129.78a1.6,1.6,0,0,1-1.22-.49,1.82,1.82,0,0,1-.48-1.32v-.12a2.21,2.21,0,0,1,.21-1,1.64,1.64,0,0,1,.59-.68,1.51,1.51,0,0,1,.82-.24,1.36,1.36,0,0,1,1.12.47,2,2,0,0,1,.4,1.36V128h-2.5a1.31,1.31,0,0,0,.32.89,1,1,0,0,0,.77.34,1.09,1.09,0,0,0,.57-.14,1.4,1.4,0,0,0,.41-.36l.38.3A1.56,1.56,0,0,1,297.62,129.78Zm-.08-3.31a.85.85,0,0,0-.64.27,1.39,1.39,0,0,0-.32.79h1.85v0a1.21,1.21,0,0,0-.26-.75A.77.77,0,0,0,297.54,126.47Z"/><path class="cls-5" d="M300.39,126l0,.47a1.34,1.34,0,0,1,1.11-.53c.78,0,1.18.44,1.18,1.32v2.44h-.63v-2.44a.86.86,0,0,0-.18-.6.77.77,0,0,0-.56-.19.89.89,0,0,0-.54.17,1,1,0,0,0-.36.43v2.63h-.64V126Z"/><path class="cls-5" d="M304.51,125.12V126h.69v.49h-.69v2.3a.45.45,0,0,0,.1.33.36.36,0,0,0,.31.11,1.37,1.37,0,0,0,.3,0v.51a1.69,1.69,0,0,1-.48.07.77.77,0,0,1-.64-.25,1.1,1.1,0,0,1-.22-.73v-2.3h-.67V126h.67v-.89Z"/><path class="cls-5" d="M308.48,129.71h-.66v-5h.66Z"/><path class="cls-5" d="M309.68,129.71v-5h1.4a2.25,2.25,0,0,1,1.15.28,2,2,0,0,1,.77.82,2.64,2.64,0,0,1,.28,1.22v.31a2.7,2.7,0,0,1-.27,1.24,2,2,0,0,1-.78.81,2.36,2.36,0,0,1-1.17.29Zm.65-4.44v3.91h.7a1.51,1.51,0,0,0,1.18-.48,1.94,1.94,0,0,0,.42-1.34v-.29a2,2,0,0,0-.4-1.32,1.45,1.45,0,0,0-1.13-.48Z"/><path class="cls-5" d="M314.15,129.38a.36.36,0,0,1,.1-.27.4.4,0,0,1,.69.27.35.35,0,0,1-.11.26.44.44,0,0,1-.58,0A.34.34,0,0,1,314.15,129.38Zm0-3a.41.41,0,0,1,.1-.27.38.38,0,0,1,.29-.11.41.41,0,0,1,.3.11.41.41,0,0,1,0,.54.4.4,0,0,1-.3.1.38.38,0,0,1-.29-.1A.41.41,0,0,1,314.15,126.36Z"/></g><g class="cls-7"><path class="cls-5" d="M298.24,138.44l.71-2.83h.63l-1.07,3.7H298l-.89-2.8-.88,2.8h-.51l-1.08-3.7h.63l.73,2.77.86-2.77h.51Z"/><path class="cls-5" d="M303.5,138.44l.71-2.83h.63l-1.07,3.7h-.51l-.9-2.8-.88,2.8H301l-1.07-3.7h.62l.73,2.77.86-2.77h.51Z"/><path class="cls-5" d="M308.76,138.44l.71-2.83h.64l-1.08,3.7h-.51l-.9-2.8-.88,2.8h-.51l-1.07-3.7h.63l.72,2.77.86-2.77h.51Z"/><path class="cls-5" d="M313.41,139.83h-3.13v-.52h3.13Z"/><path class="cls-5" d="M315.92,139.31h-.64V135.1l-1.27.47V135l1.81-.68h.1Z"/></g></g><g class="cls-7"><path class="cls-8" d="M133.06,31.93v2.41a1.14,1.14,0,0,1-.31.83,1.31,1.31,0,0,1-.85.36h-.13a1.32,1.32,0,0,1-.93-.31,1.12,1.12,0,0,1-.35-.87V31.93H131v2.4a.82.82,0,0,0,.22.6.78.78,0,0,0,.6.22.79.79,0,0,0,.61-.22.8.8,0,0,0,.21-.59V31.93Z"/><path class="cls-8" d="M135.27,34.78a.3.3,0,0,0-.14-.28,1.26,1.26,0,0,0-.48-.18,2.67,2.67,0,0,1-.54-.17.69.69,0,0,1-.3-.25.59.59,0,0,1-.1-.33A.7.7,0,0,1,134,33a1.07,1.07,0,0,1,.7-.23,1.14,1.14,0,0,1,.73.23.75.75,0,0,1,.28.6h-.46a.41.41,0,0,0-.15-.32.61.61,0,0,0-.4-.14.67.67,0,0,0-.39.11.34.34,0,0,0-.14.28.3.3,0,0,0,.13.25,1.9,1.9,0,0,0,.47.16,2.36,2.36,0,0,1,.55.18.79.79,0,0,1,.31.25.61.61,0,0,1,.1.36.68.68,0,0,1-.28.57,1.2,1.2,0,0,1-.74.21,1.43,1.43,0,0,1-.56-.11.92.92,0,0,1-.38-.32.74.74,0,0,1-.14-.43h.46a.43.43,0,0,0,.18.36.68.68,0,0,0,.44.13.75.75,0,0,0,.42-.1A.32.32,0,0,0,135.27,34.78Z"/><path class="cls-8" d="M137.41,35.53a1.19,1.19,0,0,1-.88-.35,1.34,1.34,0,0,1-.33-1v-.08a1.6,1.6,0,0,1,.15-.7,1.1,1.1,0,0,1,.42-.48,1,1,0,0,1,.58-.18,1,1,0,0,1,.8.34,1.48,1.48,0,0,1,.29,1v.19h-1.79a.93.93,0,0,0,.23.63.71.71,0,0,0,.55.24.76.76,0,0,0,.41-.1,1.13,1.13,0,0,0,.29-.25l.27.21A1.1,1.1,0,0,1,137.41,35.53Zm-.06-2.37a.63.63,0,0,0-.46.2,1,1,0,0,0-.23.56H138v0a.94.94,0,0,0-.19-.54A.59.59,0,0,0,137.35,33.16Z"/><path class="cls-8" d="M140.24,33.25a.86.86,0,0,0-.23,0,.59.59,0,0,0-.6.38v1.87H139V32.84h.44v.31a.68.68,0,0,1,.63-.36.4.4,0,0,1,.2,0Z"/><path class="cls-8" d="M142.46,35.48H142V31.93h.47Z"/><path class="cls-8" d="M143.32,35.48V31.93h1a1.66,1.66,0,0,1,.82.2,1.39,1.39,0,0,1,.56.59,2,2,0,0,1,.19.86v.23a1.87,1.87,0,0,1-.19.88,1.31,1.31,0,0,1-.56.58,1.64,1.64,0,0,1-.84.21Zm.47-3.17V35.1h.49a1.09,1.09,0,0,0,.85-.34,1.38,1.38,0,0,0,.3-1v-.21a1.43,1.43,0,0,0-.29-.94,1,1,0,0,0-.8-.34Z"/><path class="cls-8" d="M146.51,35.24a.32.32,0,0,1,.07-.19.32.32,0,0,1,.42,0,.27.27,0,0,1,.08.19.26.26,0,0,1-.08.19.32.32,0,0,1-.42,0A.29.29,0,0,1,146.51,35.24Zm0-2.15a.29.29,0,0,1,.07-.2.24.24,0,0,1,.2-.07.29.29,0,0,1,.22.07.35.35,0,0,1,.07.2.32.32,0,0,1-.07.19.29.29,0,0,1-.22.07.24.24,0,0,1-.2-.07A.26.26,0,0,1,146.52,33.09Z"/><path class="cls-5" d="M74.93,41.48V37.93h1a1.69,1.69,0,0,1,.82.2,1.43,1.43,0,0,1,.55.59,1.84,1.84,0,0,1,.19.86v.23a1.87,1.87,0,0,1-.19.88,1.29,1.29,0,0,1-.55.58,1.64,1.64,0,0,1-.84.21Zm.47-3.17V41.1h.5a1.05,1.05,0,0,0,.84-.34,1.38,1.38,0,0,0,.3-1v-.21a1.42,1.42,0,0,0-.28-.94,1,1,0,0,0-.81-.34Z"/><path class="cls-5" d="M78,40.14a1.55,1.55,0,0,1,.29-1,.9.9,0,0,1,.76-.37.92.92,0,0,1,.75.34l0-.29h.42v2.58a1.1,1.1,0,0,1-.31.81,1.13,1.13,0,0,1-.81.29,1.34,1.34,0,0,1-.56-.12.89.89,0,0,1-.42-.33l.23-.28a.89.89,0,0,0,.71.36.63.63,0,0,0,.7-.7v-.23a.92.92,0,0,1-.74.31.89.89,0,0,1-.75-.37A1.65,1.65,0,0,1,78,40.14Zm.46,0a1.19,1.19,0,0,0,.18.7.59.59,0,0,0,.51.26.66.66,0,0,0,.63-.39V39.55a.67.67,0,0,0-.62-.38.62.62,0,0,0-.52.26A1.31,1.31,0,0,0,78.49,40.19Z"/><path class="cls-5" d="M83.29,40.86l.5-2h.45l-.76,2.64h-.37l-.64-2-.63,2h-.36l-.77-2.64h.45l.52,2,.61-2h.37Z"/><path class="cls-5" d="M87.39,40.35a1.25,1.25,0,0,1-.42.87,1.32,1.32,0,0,1-.93.31,1.26,1.26,0,0,1-1-.45,1.84,1.84,0,0,1-.38-1.21v-.34a2,2,0,0,1,.18-.87,1.36,1.36,0,0,1,.5-.58,1.45,1.45,0,0,1,.75-.2,1.29,1.29,0,0,1,.91.31,1.37,1.37,0,0,1,.4.88h-.47a1,1,0,0,0-.27-.62.81.81,0,0,0-.57-.19.83.83,0,0,0-.7.33,1.55,1.55,0,0,0-.26.95v.34a1.53,1.53,0,0,0,.25.93.79.79,0,0,0,.67.34.9.9,0,0,0,.6-.18,1,1,0,0,0,.28-.62Z"/><path class="cls-5" d="M88,41.48V37.93h1.16a1.33,1.33,0,0,1,.87.24.83.83,0,0,1,.29.7.66.66,0,0,1-.14.44.88.88,0,0,1-.38.3.85.85,0,0,1,.45.31.89.89,0,0,1,.17.54,1,1,0,0,1-.31.75,1.3,1.3,0,0,1-.88.27Zm.47-2h.71a.77.77,0,0,0,.49-.15.52.52,0,0,0,.18-.42.51.51,0,0,0-.17-.43.83.83,0,0,0-.52-.13H88.5Zm0,.38V41.1h.77a.77.77,0,0,0,.52-.17.62.62,0,0,0,.19-.47c0-.43-.24-.64-.7-.64Z"/><path class="cls-5" d="M93.41,40.86l.51-2h.45l-.77,2.64h-.37l-.64-2-.62,2H91.6l-.77-2.64h.45l.52,2,.62-2h.36Z"/><path class="cls-5" d="M95.89,41.16a.68.68,0,0,0,.42-.14.51.51,0,0,0,.2-.37h.43a.81.81,0,0,1-.16.43.94.94,0,0,1-.38.33,1.13,1.13,0,0,1-.51.12,1.09,1.09,0,0,1-.86-.36,1.44,1.44,0,0,1-.32-1v-.08a1.67,1.67,0,0,1,.14-.69,1.08,1.08,0,0,1,.41-.46,1.15,1.15,0,0,1,.62-.17,1,1,0,0,1,.74.27,1,1,0,0,1,.32.69h-.43a.63.63,0,0,0-.19-.42.62.62,0,0,0-.44-.17.63.63,0,0,0-.53.25,1.21,1.21,0,0,0-.19.72v.08a1.2,1.2,0,0,0,.19.71A.66.66,0,0,0,95.89,41.16Z"/><path class="cls-5" d="M100.25,41.48h-.47L98,38.74v2.74h-.47V37.93H98l1.79,2.75V37.93h.47Z"/><path class="cls-5" d="M103.7,40.35a1.25,1.25,0,0,1-1.35,1.18,1.25,1.25,0,0,1-1-.45,1.79,1.79,0,0,1-.38-1.21v-.34a2,2,0,0,1,.18-.87,1.24,1.24,0,0,1,.5-.58,1.4,1.4,0,0,1,.75-.2,1.29,1.29,0,0,1,.91.31,1.37,1.37,0,0,1,.4.88h-.48a1.08,1.08,0,0,0-.26-.62.94.94,0,0,0-1.28.14,1.56,1.56,0,0,0-.25.95v.34a1.6,1.6,0,0,0,.24.93.8.8,0,0,0,.68.34A.9.9,0,0,0,103,41a1,1,0,0,0,.27-.62Z"/><path class="cls-5" d="M107.05,39.82a2.21,2.21,0,0,1-.16.89,1.49,1.49,0,0,1-.46.58l.63.5-.32.29-.75-.59a1.45,1.45,0,0,1-.37,0,1.36,1.36,0,0,1-1.25-.79,2.08,2.08,0,0,1-.18-.89v-.26a2.13,2.13,0,0,1,.18-.9,1.35,1.35,0,0,1,.5-.6,1.37,1.37,0,0,1,.75-.21,1.34,1.34,0,0,1,.75.21,1.22,1.22,0,0,1,.5.59,2.17,2.17,0,0,1,.18.91Zm-.47-.23a1.6,1.6,0,0,0-.25-1,.9.9,0,0,0-1.41,0,1.52,1.52,0,0,0-.26.94v.26a1.59,1.59,0,0,0,.25,1,.82.82,0,0,0,.71.35.85.85,0,0,0,.71-.33,1.58,1.58,0,0,0,.25-.95Z"/><path class="cls-5" d="M110.28,37.93v2.41a1.19,1.19,0,0,1-.32.83,1.31,1.31,0,0,1-.85.36H109a1.34,1.34,0,0,1-.93-.31,1.12,1.12,0,0,1-.35-.87V37.93h.47v2.4a.81.81,0,0,0,.21.6.78.78,0,0,0,.6.22.79.79,0,0,0,.61-.22.8.8,0,0,0,.21-.59V37.93Z"/><path class="cls-5" d="M111.62,37.93l1.16,2.9,1.16-2.9h.61v3.55h-.47V40.1l0-1.5L113,41.48h-.36l-1.16-2.87,0,1.49v1.38H111V37.93Z"/><path class="cls-5" d="M118,40.35a1.28,1.28,0,0,1-.41.87,1.32,1.32,0,0,1-.93.31,1.25,1.25,0,0,1-1-.45,1.79,1.79,0,0,1-.38-1.21v-.34a2,2,0,0,1,.18-.87,1.24,1.24,0,0,1,.5-.58,1.4,1.4,0,0,1,.75-.2,1.29,1.29,0,0,1,.91.31,1.31,1.31,0,0,1,.39.88h-.47a1.08,1.08,0,0,0-.26-.62.94.94,0,0,0-1.28.14,1.56,1.56,0,0,0-.25.95v.34a1.6,1.6,0,0,0,.24.93.8.8,0,0,0,.68.34.9.9,0,0,0,.6-.18,1,1,0,0,0,.27-.62Z"/><path class="cls-5" d="M118.46,40.14a1.54,1.54,0,0,1,.28-1,.9.9,0,0,1,.76-.37.92.92,0,0,1,.75.34l0-.29h.42v2.58a1.06,1.06,0,0,1-.31.81,1.13,1.13,0,0,1-.81.29,1.38,1.38,0,0,1-.56-.12,1,1,0,0,1-.42-.33l.24-.28a.86.86,0,0,0,.71.36.71.71,0,0,0,.51-.18.73.73,0,0,0,.18-.52v-.23a.91.91,0,0,1-.74.31.89.89,0,0,1-.75-.37A1.65,1.65,0,0,1,118.46,40.14Zm.45,0a1.19,1.19,0,0,0,.18.7.62.62,0,0,0,.52.26.65.65,0,0,0,.62-.39V39.55a.67.67,0,0,0-.62-.38.59.59,0,0,0-.51.26A1.23,1.23,0,0,0,118.91,40.19Z"/><path class="cls-5" d="M124.15,39.82a2.21,2.21,0,0,1-.16.89,1.4,1.4,0,0,1-.46.58l.64.5-.32.29-.75-.59a1.5,1.5,0,0,1-.37,0,1.37,1.37,0,0,1-.75-.21,1.3,1.3,0,0,1-.5-.58,2.24,2.24,0,0,1-.19-.89v-.26a2.13,2.13,0,0,1,.18-.9,1.42,1.42,0,0,1,.5-.6,1.46,1.46,0,0,1,1.51,0,1.33,1.33,0,0,1,.5.59,2.34,2.34,0,0,1,.17.91Zm-.47-.23a1.6,1.6,0,0,0-.25-1,.81.81,0,0,0-.71-.34.83.83,0,0,0-.7.34,1.59,1.59,0,0,0-.26.94v.26a1.59,1.59,0,0,0,.26,1,.81.81,0,0,0,.71.35.83.83,0,0,0,.7-.33,1.58,1.58,0,0,0,.25-.95Z"/><path class="cls-5" d="M126.84,40.55h-1.49l-.33.93h-.49l1.36-3.55h.41l1.36,3.55h-.48Zm-1.35-.38h1.21l-.61-1.66Z"/><path class="cls-5" d="M128.14,41.48V37.93h1.16a1.33,1.33,0,0,1,.87.24.83.83,0,0,1,.29.7.72.72,0,0,1-.14.44.85.85,0,0,1-.39.3.84.84,0,0,1,.46.31.89.89,0,0,1,.17.54,1,1,0,0,1-.31.75,1.3,1.3,0,0,1-.88.27Zm.47-2h.71a.77.77,0,0,0,.49-.15.52.52,0,0,0,.18-.42.54.54,0,0,0-.17-.43.83.83,0,0,0-.52-.13h-.69Zm0,.38V41.1h.77a.77.77,0,0,0,.52-.17.62.62,0,0,0,.19-.47c0-.43-.24-.64-.7-.64Z"/><path class="cls-5" d="M133.21,40.55h-1.48l-.34.93h-.48l1.35-3.55h.41L134,41.48h-.48Zm-1.34-.38h1.21l-.61-1.66Z"/><path class="cls-5" d="M137,37.93v2.41a1.14,1.14,0,0,1-.31.83,1.31,1.31,0,0,1-.85.36h-.13a1.32,1.32,0,0,1-.93-.31,1.12,1.12,0,0,1-.35-.87V37.93h.47v2.4a.81.81,0,0,0,.21.6.78.78,0,0,0,.6.22.79.79,0,0,0,.61-.22.8.8,0,0,0,.21-.59V37.93Z"/><path class="cls-5" d="M140.34,41a1,1,0,0,1-.51.38,1.9,1.9,0,0,1-.75.13,1.5,1.5,0,0,1-.77-.2,1.33,1.33,0,0,1-.52-.58,2,2,0,0,1-.19-.87v-.31a1.87,1.87,0,0,1,.37-1.25,1.34,1.34,0,0,1,1.06-.44,1.32,1.32,0,0,1,.89.28,1.23,1.23,0,0,1,.42.81h-.47a.78.78,0,0,0-.84-.71.83.83,0,0,0-.71.33,1.55,1.55,0,0,0-.25,1v.29a1.51,1.51,0,0,0,.27.95.89.89,0,0,0,.74.36,1.68,1.68,0,0,0,.47-.06.7.7,0,0,0,.32-.2V40.1h-.82v-.39h1.29Z"/><path class="cls-5" d="M143.73,40.35a1.28,1.28,0,0,1-.41.87,1.36,1.36,0,0,1-.93.31,1.25,1.25,0,0,1-1-.45,1.79,1.79,0,0,1-.38-1.21v-.34a2.14,2.14,0,0,1,.17-.87,1.32,1.32,0,0,1,.51-.58,1.4,1.4,0,0,1,.75-.2,1.29,1.29,0,0,1,.91.31,1.36,1.36,0,0,1,.39.88h-.47a1.08,1.08,0,0,0-.26-.62.94.94,0,0,0-1.28.14,1.56,1.56,0,0,0-.25.95v.34a1.6,1.6,0,0,0,.24.93.8.8,0,0,0,.68.34A.9.9,0,0,0,143,41a1,1,0,0,0,.27-.62Z"/><path class="cls-5" d="M147.09,39.82a2.21,2.21,0,0,1-.16.89,1.49,1.49,0,0,1-.46.58l.63.5-.32.29-.75-.59a1.5,1.5,0,0,1-.37,0,1.36,1.36,0,0,1-1.25-.79,2.08,2.08,0,0,1-.18-.89v-.26a2.13,2.13,0,0,1,.18-.9,1.35,1.35,0,0,1,.5-.6,1.44,1.44,0,0,1,1.5,0,1.22,1.22,0,0,1,.5.59,2.17,2.17,0,0,1,.18.91Zm-.47-.23a1.6,1.6,0,0,0-.25-1,.9.9,0,0,0-1.41,0,1.52,1.52,0,0,0-.26.94v.26a1.59,1.59,0,0,0,.25,1,.9.9,0,0,0,1.41,0,1.51,1.51,0,0,0,.26-.95Z"/></g><path class="cls-6" d="M161.39,46.1H74.14a1.67,1.67,0,0,0-1.67,1.67v54.15"/><path class="cls-6" d="M214.37,46.1h87.25a1.66,1.66,0,0,1,1.66,1.67v54.15"/><path class="cls-9" d="M172.39,60.67V55.6a8.19,8.19,0,0,1,8.17-8.21h16.35a8.18,8.18,0,0,1,8.17,8.21v3.61"/><circle class="cls-4" cx="188.74" cy="31.04" r="8.17"/><path class="cls-10" d="M187.84,9.66A27.82,27.82,0,1,1,160,37.48"/><circle class="cls-5" cx="135.46" cy="160.64" r="1.68"/><line class="cls-11" x1="133.77" y1="128.65" x2="137.14" y2="128.65"/><rect class="cls-12" x="125.3" y="124.58" width="21.34" height="40.55" rx="2.12"/><g class="cls-7"><g class="cls-7"><path class="cls-5" d="M105.78,179.13a1.38,1.38,0,0,1-.42.87,1.37,1.37,0,0,1-.93.3,1.25,1.25,0,0,1-1-.45,1.83,1.83,0,0,1-.38-1.21v-.34a2,2,0,0,1,.18-.87,1.29,1.29,0,0,1,.5-.58,1.42,1.42,0,0,1,.75-.2,1.29,1.29,0,0,1,.91.32,1.32,1.32,0,0,1,.4.87h-.48a1,1,0,0,0-.26-.61.81.81,0,0,0-.57-.2.84.84,0,0,0-.7.34,1.5,1.5,0,0,0-.26.94v.35a1.59,1.59,0,0,0,.24.92.78.78,0,0,0,.68.34.9.9,0,0,0,.6-.18.94.94,0,0,0,.27-.61Z"/><path class="cls-5" d="M106.84,180.25h-.46V176.5h.46Z"/><path class="cls-5" d="M107.56,176.91a.24.24,0,0,1,.07-.18.25.25,0,0,1,.2-.08.28.28,0,0,1,.2.08.29.29,0,0,1,.07.18.29.29,0,0,1-.07.19.32.32,0,0,1-.2.07.28.28,0,0,1-.2-.07A.25.25,0,0,1,107.56,176.91Zm.49,3.34h-.45v-2.64h.45Z"/><path class="cls-5" d="M109.87,180.3A1.15,1.15,0,0,1,109,180a1.31,1.31,0,0,1-.33-.94v-.09a1.6,1.6,0,0,1,.15-.7,1.22,1.22,0,0,1,.42-.48,1,1,0,0,1,.58-.18,1,1,0,0,1,.8.34,1.49,1.49,0,0,1,.29,1v.18h-1.79a.93.93,0,0,0,.23.63.71.71,0,0,0,.55.24.86.86,0,0,0,.41-.09,1.18,1.18,0,0,0,.29-.26l.27.21A1.1,1.1,0,0,1,109.87,180.3Zm-.06-2.36a.62.62,0,0,0-.46.19,1,1,0,0,0-.23.56h1.33v0a.94.94,0,0,0-.19-.54A.58.58,0,0,0,109.81,177.94Z"/><path class="cls-5" d="M111.85,177.61V178a1,1,0,0,1,.79-.39c.56,0,.84.32.85.95v1.74h-.45v-1.74a.73.73,0,0,0-.13-.43.54.54,0,0,0-.4-.13.65.65,0,0,0-.39.12.7.7,0,0,0-.26.3v1.88h-.45v-2.64Z"/><path class="cls-5" d="M114.79,177v.64h.5V178h-.5v1.64a.33.33,0,0,0,.07.24.28.28,0,0,0,.22.08l.22,0v.36a1.1,1.1,0,0,1-.35.05.59.59,0,0,1-.46-.18.79.79,0,0,1-.15-.52V178h-.48v-.35h.48V177Z"/><path class="cls-5" d="M117.62,180.25h-.46V176.7h.46Z"/><path class="cls-5" d="M118.48,180.25V176.7h1a1.56,1.56,0,0,1,.82.21,1.36,1.36,0,0,1,.56.58,2,2,0,0,1,.19.87v.22a1.94,1.94,0,0,1-.19.89,1.42,1.42,0,0,1-.56.58,1.74,1.74,0,0,1-.84.2Zm.47-3.17v2.79h.49a1.07,1.07,0,0,0,.85-.34,1.38,1.38,0,0,0,.3-1v-.2a1.44,1.44,0,0,0-.29-1,1,1,0,0,0-.8-.34Z"/><path class="cls-5" d="M121.67,180a.32.32,0,0,1,.07-.2.29.29,0,0,1,.21-.08.26.26,0,0,1,.21.08.28.28,0,0,1,.08.2.27.27,0,0,1-.08.19.25.25,0,0,1-.21.07.28.28,0,0,1-.21-.07A.32.32,0,0,1,121.67,180Zm0-2.16a.26.26,0,0,1,.27-.27.27.27,0,1,1,0,.54.26.26,0,0,1-.27-.27Z"/></g><g class="cls-7"><path class="cls-5" d="M104.15,186.54a.64.64,0,0,0,.42-.15.51.51,0,0,0,.2-.37h.43a.79.79,0,0,1-.16.43.94.94,0,0,1-.38.33,1.13,1.13,0,0,1-.51.12,1.09,1.09,0,0,1-.86-.36,1.43,1.43,0,0,1-.32-1v-.08a1.51,1.51,0,0,1,.15-.68,1.09,1.09,0,0,1,.4-.47,1.19,1.19,0,0,1,.63-.17,1.07,1.07,0,0,1,.74.27,1,1,0,0,1,.31.69h-.43a.59.59,0,0,0-.19-.42.6.6,0,0,0-.43-.16.66.66,0,0,0-.54.24,1.24,1.24,0,0,0-.18.72v.09a1.19,1.19,0,0,0,.18.7A.67.67,0,0,0,104.15,186.54Z"/><path class="cls-5" d="M106.2,186.86h-.45v-3.75h.45Z"/><path class="cls-5" d="M106.8,185.51a1.6,1.6,0,0,1,.15-.7,1.33,1.33,0,0,1,.43-.48,1.18,1.18,0,0,1,.62-.17,1.11,1.11,0,0,1,.87.38,1.4,1.4,0,0,1,.34,1v0a1.6,1.6,0,0,1-.15.7,1.13,1.13,0,0,1-.42.47,1.15,1.15,0,0,1-.63.17,1.1,1.1,0,0,1-.87-.37,1.4,1.4,0,0,1-.34-1Zm.46.05a1.11,1.11,0,0,0,.2.71.66.66,0,0,0,.55.27.63.63,0,0,0,.54-.27,1.23,1.23,0,0,0,.2-.76,1.1,1.1,0,0,0-.2-.7.66.66,0,0,0-.55-.27.65.65,0,0,0-.54.26A1.21,1.21,0,0,0,107.26,185.56Z"/><path class="cls-5" d="M111.4,186.59a.93.93,0,0,1-.77.31.82.82,0,0,1-.64-.24,1.06,1.06,0,0,1-.23-.73v-1.72h.45v1.71c0,.4.17.6.49.6a.67.67,0,0,0,.69-.39v-1.92h.45v2.65h-.43Z"/><path class="cls-5" d="M112.42,185.51a1.53,1.53,0,0,1,.29-1,.9.9,0,0,1,.75-.38.93.93,0,0,1,.74.32v-1.37h.45v3.75h-.42l0-.29a.92.92,0,0,1-.75.33.89.89,0,0,1-.75-.37,1.58,1.58,0,0,1-.29-1Zm.45.05a1.15,1.15,0,0,0,.19.71.58.58,0,0,0,.51.25.66.66,0,0,0,.63-.39v-1.21a.67.67,0,0,0-.63-.37.58.58,0,0,0-.51.25A1.28,1.28,0,0,0,112.87,185.56Z"/><path class="cls-5" d="M117.25,187.22H115v-.36h2.23Z"/><path class="cls-5" d="M119.24,186.86a1,1,0,0,1-.07-.28,1,1,0,0,1-.75.32.92.92,0,0,1-.64-.22.69.69,0,0,1-.25-.56.74.74,0,0,1,.31-.64,1.52,1.52,0,0,1,.89-.23h.43v-.2a.48.48,0,0,0-.14-.38.56.56,0,0,0-.41-.14.69.69,0,0,0-.41.12.35.35,0,0,0-.16.3h-.46a.67.67,0,0,1,.14-.39,1,1,0,0,1,.38-.29,1.32,1.32,0,0,1,.53-.11,1.05,1.05,0,0,1,.72.23.86.86,0,0,1,.27.63v1.22a1.57,1.57,0,0,0,.09.58v0Zm-.75-.35a.83.83,0,0,0,.4-.11.61.61,0,0,0,.27-.28v-.55h-.35c-.55,0-.83.17-.83.49a.42.42,0,0,0,.14.33A.57.57,0,0,0,118.49,186.51Z"/><path class="cls-5" d="M122.56,185.56a1.63,1.63,0,0,1-.28,1,.88.88,0,0,1-.75.36,1,1,0,0,1-.75-.3v1.27h-.45v-3.66h.41l0,.3a.93.93,0,0,1,.77-.35.94.94,0,0,1,.75.36,1.65,1.65,0,0,1,.28,1Zm-.46-.05a1.12,1.12,0,0,0-.19-.7.59.59,0,0,0-.52-.26.65.65,0,0,0-.61.36v1.26a.67.67,0,0,0,.62.37.6.6,0,0,0,.51-.26A1.27,1.27,0,0,0,122.1,185.51Z"/><path class="cls-5" d="M125.36,185.56a1.63,1.63,0,0,1-.27,1,.91.91,0,0,1-.75.36,1,1,0,0,1-.76-.3v1.27h-.45v-3.66h.41l0,.3a.94.94,0,0,1,.77-.35.91.91,0,0,1,.75.36,1.58,1.58,0,0,1,.28,1Zm-.45-.05a1.12,1.12,0,0,0-.19-.7.6.6,0,0,0-.52-.26.67.67,0,0,0-.62.36v1.26a.68.68,0,0,0,.62.37.62.62,0,0,0,.52-.26A1.27,1.27,0,0,0,124.91,185.51Z"/><path class="cls-5" d="M127.84,187.22H125.6v-.36h2.24Z"/><path class="cls-5" d="M129.63,186.86h-.46v-3l-.91.33v-.41l1.3-.49h.07Z"/><path class="cls-5" d="M132.9,187.22h-2.23v-.36h2.23Z"/><path class="cls-5" d="M133.68,184.21v.3a1,1,0,0,1,.79-.35.76.76,0,0,1,.75.43,1,1,0,0,1,.34-.31,1,1,0,0,1,.5-.12c.58,0,.88.31.89.93v1.77h-.46v-1.75a.57.57,0,0,0-.13-.42.53.53,0,0,0-.43-.14.6.6,0,0,0-.42.15.61.61,0,0,0-.19.4v1.76h-.45v-1.74a.5.5,0,0,0-.57-.57.6.6,0,0,0-.61.38v1.93h-.45v-2.65Z"/><path class="cls-5" d="M137.52,185.51a1.6,1.6,0,0,1,.15-.7,1.11,1.11,0,0,1,1.05-.65,1.11,1.11,0,0,1,.87.38,1.44,1.44,0,0,1,.33,1v0a1.6,1.6,0,0,1-.15.7,1,1,0,0,1-.42.47,1.23,1.23,0,0,1-1.5-.2,1.44,1.44,0,0,1-.33-1Zm.45.05a1.17,1.17,0,0,0,.2.71.7.7,0,0,0,1.1,0,1.29,1.29,0,0,0,.2-.76,1.1,1.1,0,0,0-.21-.7.64.64,0,0,0-.54-.27.62.62,0,0,0-.54.26A1.21,1.21,0,0,0,138,185.56Z"/><path class="cls-5" d="M142.72,185.56a1.63,1.63,0,0,1-.27,1,1,1,0,0,1-1.52,0l0,.31h-.41v-3.75h.45v1.39a.92.92,0,0,1,.75-.34.9.9,0,0,1,.76.37,1.63,1.63,0,0,1,.27,1Zm-.45-.05a1.2,1.2,0,0,0-.18-.71.56.56,0,0,0-.51-.25.66.66,0,0,0-.64.41v1.15a.69.69,0,0,0,.65.41.58.58,0,0,0,.5-.25A1.31,1.31,0,0,0,142.27,185.51Z"/><path class="cls-5" d="M143.3,183.51a.28.28,0,0,1,.06-.18.26.26,0,0,1,.2-.08.25.25,0,0,1,.2.08.24.24,0,0,1,.07.18.25.25,0,0,1-.07.19.28.28,0,0,1-.2.07.3.3,0,0,1-.2-.07A.29.29,0,0,1,143.3,183.51Zm.48,3.35h-.45v-2.65h.45Z"/><path class="cls-5" d="M145,186.86h-.45v-3.75H145Z"/><path class="cls-5" d="M146.82,186.9a1.15,1.15,0,0,1-.88-.35,1.31,1.31,0,0,1-.33-.94v-.08a1.61,1.61,0,0,1,.15-.71,1.22,1.22,0,0,1,.42-.48,1.07,1.07,0,0,1,1.38.16,1.49,1.49,0,0,1,.29,1v.18h-1.79a.89.89,0,0,0,.23.63.71.71,0,0,0,.55.25.86.86,0,0,0,.41-.1,1.18,1.18,0,0,0,.29-.26l.27.21A1.1,1.1,0,0,1,146.82,186.9Zm-.06-2.36a.58.58,0,0,0-.46.2,1,1,0,0,0-.23.55h1.33v0a.88.88,0,0,0-.19-.53A.55.55,0,0,0,146.76,184.54Z"/><path class="cls-5" d="M150.27,187.22H148v-.36h2.23Z"/><path class="cls-5" d="M152.26,186.86a1,1,0,0,1-.07-.28,1,1,0,0,1-.75.32.92.92,0,0,1-.64-.22.69.69,0,0,1-.25-.56.74.74,0,0,1,.31-.64,1.52,1.52,0,0,1,.89-.23h.44v-.2a.49.49,0,0,0-.15-.38.56.56,0,0,0-.41-.14.66.66,0,0,0-.41.12.35.35,0,0,0-.16.3h-.46a.67.67,0,0,1,.14-.39,1,1,0,0,1,.38-.29,1.36,1.36,0,0,1,.53-.11,1.05,1.05,0,0,1,.72.23.86.86,0,0,1,.27.63v1.22a1.57,1.57,0,0,0,.09.58v0Zm-.75-.35a.83.83,0,0,0,.4-.11.69.69,0,0,0,.28-.28v-.55h-.36c-.55,0-.83.17-.83.49a.42.42,0,0,0,.14.33A.57.57,0,0,0,151.51,186.51Z"/><path class="cls-5" d="M155.58,185.56a1.63,1.63,0,0,1-.28,1,.88.88,0,0,1-.75.36,1,1,0,0,1-.75-.3v1.27h-.46v-3.66h.42l0,.3a.93.93,0,0,1,.77-.35.94.94,0,0,1,.75.36,1.65,1.65,0,0,1,.28,1Zm-.46-.05a1.12,1.12,0,0,0-.19-.7.59.59,0,0,0-.52-.26.65.65,0,0,0-.61.36v1.26a.67.67,0,0,0,.62.37.6.6,0,0,0,.51-.26A1.27,1.27,0,0,0,155.12,185.51Z"/><path class="cls-5" d="M158.38,185.56a1.63,1.63,0,0,1-.27,1,.91.91,0,0,1-.75.36,1,1,0,0,1-.76-.3v1.27h-.45v-3.66h.41l0,.3a.94.94,0,0,1,.77-.35.91.91,0,0,1,.75.36,1.58,1.58,0,0,1,.28,1Zm-.45-.05a1.12,1.12,0,0,0-.19-.7.6.6,0,0,0-.52-.26.67.67,0,0,0-.62.36v1.26a.68.68,0,0,0,.62.37.62.62,0,0,0,.52-.26A1.27,1.27,0,0,0,157.93,185.51Z"/></g></g><g class="cls-7"><g class="cls-7"><path class="cls-5" d="M11.24,110a2.2,2.2,0,0,1-.87-.42.81.81,0,0,1-.28-.63.83.83,0,0,1,.34-.69,1.28,1.28,0,0,1,.87-.28,1.51,1.51,0,0,1,.65.14,1.23,1.23,0,0,1,.45.39,1.06,1.06,0,0,1,.15.55h-.47a.66.66,0,0,0-.2-.51.86.86,0,0,0-.58-.18.87.87,0,0,0-.54.15.5.5,0,0,0-.2.42.47.47,0,0,0,.19.37,1.88,1.88,0,0,0,.63.28,2.91,2.91,0,0,1,.69.27,1,1,0,0,1,.37.35.89.89,0,0,1,.12.47.84.84,0,0,1-.34.7,1.44,1.44,0,0,1-.9.25,1.56,1.56,0,0,1-.68-.14,1.18,1.18,0,0,1-.49-.38,1,1,0,0,1-.17-.55h.47a.59.59,0,0,0,.24.5,1,1,0,0,0,.63.19.92.92,0,0,0,.57-.15.54.54,0,0,0,0-.82A2.21,2.21,0,0,0,11.24,110Z"/><path class="cls-5" d="M14.19,111.58a1.15,1.15,0,0,1-.88-.35,1.31,1.31,0,0,1-.33-.94v-.08a1.61,1.61,0,0,1,.15-.71,1.22,1.22,0,0,1,.42-.48,1.11,1.11,0,0,1,1.38.16,1.51,1.51,0,0,1,.29,1v.18H13.43a.9.9,0,0,0,.23.64.71.71,0,0,0,.55.24.86.86,0,0,0,.41-.1,1,1,0,0,0,.29-.26l.27.22A1.11,1.11,0,0,1,14.19,111.58Zm-.06-2.36a.59.59,0,0,0-.46.2,1,1,0,0,0-.23.55h1.33v0a.88.88,0,0,0-.19-.53A.55.55,0,0,0,14.13,109.22Z"/><path class="cls-5" d="M16.8,111.22a.64.64,0,0,0,.42-.15.51.51,0,0,0,.2-.37h.43a.85.85,0,0,1-.16.44,1,1,0,0,1-.38.32,1.13,1.13,0,0,1-.51.12,1.09,1.09,0,0,1-.86-.36,1.43,1.43,0,0,1-.32-1v-.08a1.65,1.65,0,0,1,.14-.68,1.11,1.11,0,0,1,.41-.47,1.18,1.18,0,0,1,.63-.16,1.06,1.06,0,0,1,.74.26,1,1,0,0,1,.31.69h-.43a.63.63,0,0,0-.19-.42.6.6,0,0,0-.43-.16.66.66,0,0,0-.54.24,1.24,1.24,0,0,0-.18.72v.09a1.17,1.17,0,0,0,.18.7A.67.67,0,0,0,16.8,111.22Z"/><path class="cls-5" d="M19,108.25v.64h.49v.35H19v1.64a.33.33,0,0,0,.07.24.28.28,0,0,0,.22.08l.22,0v.37a1.45,1.45,0,0,1-.35,0,.59.59,0,0,1-.46-.18.79.79,0,0,1-.15-.52v-1.64H18v-.35h.48v-.64Z"/><path class="cls-5" d="M19.82,110.19a1.47,1.47,0,0,1,.16-.7,1.22,1.22,0,0,1,.42-.48,1.17,1.17,0,0,1,.62-.16,1.1,1.1,0,0,1,.87.37,1.4,1.4,0,0,1,.34,1v0a1.6,1.6,0,0,1-.15.7,1.13,1.13,0,0,1-.42.47,1.15,1.15,0,0,1-.63.17,1.1,1.1,0,0,1-.87-.37,1.4,1.4,0,0,1-.34-1Zm.46,0a1.11,1.11,0,0,0,.2.71.66.66,0,0,0,.55.27.63.63,0,0,0,.54-.27,1.23,1.23,0,0,0,.21-.76,1.1,1.1,0,0,0-.21-.7.66.66,0,0,0-.55-.27.67.67,0,0,0-.54.26A1.21,1.21,0,0,0,20.28,110.24Z"/><path class="cls-5" d="M24.07,109.3l-.22,0a.61.61,0,0,0-.61.38v1.88h-.45v-2.65h.44v.31a.7.7,0,0,1,.63-.35.49.49,0,0,1,.2,0Z"/><path class="cls-5" d="M26.3,111.54h-.47V108h.47Z"/><path class="cls-5" d="M27.15,111.54V108h1a1.59,1.59,0,0,1,.82.21,1.34,1.34,0,0,1,.55.58,1.86,1.86,0,0,1,.19.87v.23a1.93,1.93,0,0,1-.19.88,1.4,1.4,0,0,1-.55.58,1.86,1.86,0,0,1-.84.21Zm.47-3.18v2.79h.5a1.08,1.08,0,0,0,.84-.33,1.42,1.42,0,0,0,.3-1v-.21a1.39,1.39,0,0,0-.28-.94,1,1,0,0,0-.81-.35Z"/><path class="cls-5" d="M30.35,111.3a.29.29,0,0,1,.07-.2.25.25,0,0,1,.21-.07.28.28,0,0,1,.21.07.35.35,0,0,1,.07.2.32.32,0,0,1-.07.19.28.28,0,0,1-.21.07.25.25,0,0,1-.21-.07A.26.26,0,0,1,30.35,111.3Zm0-2.16a.26.26,0,0,1,.07-.19.32.32,0,0,1,.42,0,.26.26,0,0,1,.07.19.25.25,0,0,1-.07.19.32.32,0,0,1-.42,0A.25.25,0,0,1,30.35,109.14Z"/></g><g class="cls-7"><path class="cls-5" d="M11.19,117.82a.64.64,0,0,0,.42-.15.55.55,0,0,0,.2-.37h.43a.94.94,0,0,1-.16.44,1.14,1.14,0,0,1-.89.44,1.09,1.09,0,0,1-.86-.36,1.43,1.43,0,0,1-.32-1v-.08a1.65,1.65,0,0,1,.14-.68,1,1,0,0,1,.41-.47,1.12,1.12,0,0,1,.62-.16,1,1,0,0,1,.74.26,1,1,0,0,1,.32.69h-.43a.64.64,0,0,0-.2-.42.59.59,0,0,0-.43-.16.64.64,0,0,0-.53.24,1.16,1.16,0,0,0-.19.72v.09a1.1,1.1,0,0,0,.19.7A.64.64,0,0,0,11.19,117.82Z"/><path class="cls-5" d="M13.23,118.14h-.45v-3.75h.45Z"/><path class="cls-5" d="M13.84,116.79a1.6,1.6,0,0,1,.15-.7,1.22,1.22,0,0,1,.42-.48,1.21,1.21,0,0,1,.63-.16,1.1,1.1,0,0,1,.87.37,1.44,1.44,0,0,1,.33,1v0a1.6,1.6,0,0,1-.15.7,1.13,1.13,0,0,1-.42.47,1.23,1.23,0,0,1-1.5-.2,1.44,1.44,0,0,1-.33-1Zm.45,0a1.17,1.17,0,0,0,.2.71.7.7,0,0,0,1.1,0,1.29,1.29,0,0,0,.2-.76,1.1,1.1,0,0,0-.21-.7.68.68,0,0,0-1.08,0A1.21,1.21,0,0,0,14.29,116.84Z"/><path class="cls-5" d="M18.44,117.87a1,1,0,0,1-.78.31.83.83,0,0,1-.64-.24,1,1,0,0,1-.22-.73v-1.72h.45v1.71c0,.4.16.6.49.6a.69.69,0,0,0,.69-.39v-1.92h.45v2.65h-.43Z"/><path class="cls-5" d="M19.45,116.79a1.53,1.53,0,0,1,.29-1,1,1,0,0,1,1.49-.06v-1.37h.45v3.75h-.41l0-.29a.94.94,0,0,1-.76.33.92.92,0,0,1-.75-.37,1.58,1.58,0,0,1-.29-1Zm.46,0a1.22,1.22,0,0,0,.18.71.6.6,0,0,0,.51.25.66.66,0,0,0,.63-.39V116.2a.65.65,0,0,0-.62-.37.6.6,0,0,0-.52.25A1.36,1.36,0,0,0,19.91,116.84Z"/><path class="cls-5" d="M24.29,118.5H22.05v-.36h2.24Z"/><path class="cls-5" d="M26.27,118.14a.78.78,0,0,1-.06-.28,1,1,0,0,1-.76.32.94.94,0,0,1-.64-.22.72.72,0,0,1-.25-.56.75.75,0,0,1,.32-.64,1.49,1.49,0,0,1,.88-.23h.44v-.2a.52.52,0,0,0-.14-.38.59.59,0,0,0-.42-.14.63.63,0,0,0-.4.12.36.36,0,0,0-.17.3h-.45a.6.6,0,0,1,.14-.39.94.94,0,0,1,.38-.29,1.32,1.32,0,0,1,.53-.1,1,1,0,0,1,.71.22.8.8,0,0,1,.27.63v1.22a1.57,1.57,0,0,0,.09.58v0Zm-.75-.35a.8.8,0,0,0,.4-.11.69.69,0,0,0,.28-.28v-.55h-.35c-.56,0-.83.17-.83.49a.39.39,0,0,0,.14.33A.52.52,0,0,0,25.52,117.79Z"/><path class="cls-5" d="M29.59,116.84a1.63,1.63,0,0,1-.27,1,.91.91,0,0,1-.75.36,1,1,0,0,1-.76-.3v1.27h-.45v-3.66h.41l0,.3a.93.93,0,0,1,.77-.34.9.9,0,0,1,.75.35,1.58,1.58,0,0,1,.28,1Zm-.45,0a1.12,1.12,0,0,0-.19-.7.6.6,0,0,0-.52-.26.67.67,0,0,0-.62.36v1.26a.66.66,0,0,0,.62.37.62.62,0,0,0,.52-.26A1.27,1.27,0,0,0,29.14,116.79Z"/><path class="cls-5" d="M32.4,116.84a1.63,1.63,0,0,1-.28,1,.88.88,0,0,1-.75.36,1,1,0,0,1-.75-.3v1.27h-.46v-3.66h.42l0,.3a1,1,0,0,1,1.52,0,1.65,1.65,0,0,1,.28,1Zm-.46,0a1.12,1.12,0,0,0-.19-.7.59.59,0,0,0-.52-.26.65.65,0,0,0-.61.36v1.26a.65.65,0,0,0,.62.37.62.62,0,0,0,.51-.26A1.27,1.27,0,0,0,31.94,116.79Z"/></g></g></svg>